<svg width="1280" height="720" viewBox="0 0 1280 720" fill="none" xmlns="http://www.w3.org/2000/svg">
<rect width="1280" height="720" fill="white"/>
<path fill-rule="evenodd" clip-rule="evenodd" d="M304.151 248.254C316.554 249.822 320.159 261.58 316.942 267.851C315.034 271.57 314.257 271.816 310.869 272.887C308.544 273.623 304.99 274.747 298.996 277.649C284.268 284.782 277.585 306.674 277.585 320C277.585 320 263.102 286.622 268.107 269.419C273.111 252.215 291.749 246.686 304.151 248.254ZM310.055 300C310.055 300 316.264 287.995 328.684 290.796C341.103 293.597 341.931 279.191 326.614 281.191C311.046 283.225 310.055 300 310.055 300ZM338.768 341C336.268 356.794 327.313 367 316.268 367C305.222 367 295.268 360.206 298.768 341C302.268 321.794 325.222 308 336.268 308C345.185 308 342.963 319.214 340.46 331.845C339.863 334.861 339.25 337.957 338.768 341ZM337.055 337C336.436 343.5 335.055 349.5 325.165 348.187C315.275 346.874 314.123 340.576 316.555 331.5C318.987 322.424 333.255 312.714 338.055 314C341.517 314.928 339.786 323.102 338.321 330.025C337.754 332.7 337.227 335.189 337.055 337ZM374.055 376C374.055 383.18 369.055 392 359.055 392C349.055 392 343.055 383.18 343.055 376C343.055 371.085 347.189 371.962 352.1 373.005C354.363 373.485 356.79 374 359.055 374C361.368 374 363.748 373.462 365.911 372.974C370.462 371.945 374.055 371.134 374.055 376ZM388.051 290.796C400.47 287.995 406.679 300 406.679 300C406.679 300 405.688 283.225 390.121 281.191C374.804 279.191 375.632 293.597 388.051 290.796ZM400.467 367C389.421 367 380.467 356.794 377.967 341C377.485 337.957 376.871 334.861 376.274 331.845C373.771 319.214 371.549 308 380.467 308C391.512 308 414.466 321.794 417.967 341C421.467 360.206 411.512 367 400.467 367ZM391.569 348.187C381.679 349.5 380.298 343.5 379.679 337C379.507 335.189 378.98 332.7 378.414 330.025C376.948 323.102 375.217 314.928 378.679 314C383.479 312.714 397.747 322.424 400.179 331.5C402.611 340.576 401.459 346.874 391.569 348.187ZM437.821 351.228C437.821 351.228 438.045 388.393 418.312 395.575C398.578 402.757 378.249 417.074 387.483 442.446C396.718 467.817 430.162 452.984 448.097 432.09C466.032 411.196 437.821 351.228 437.821 351.228ZM299.752 395.575C280.019 388.393 280.243 351.228 280.243 351.228C280.243 351.228 252.032 411.196 269.967 432.09C287.903 452.984 321.346 467.817 330.581 442.446C339.815 417.074 319.486 402.757 299.752 395.575ZM399.168 267.851C395.951 261.58 399.556 249.822 411.958 248.254C424.361 246.686 442.999 252.215 448.003 269.419C453.008 286.622 438.525 320 438.525 320C438.525 306.674 431.842 284.782 417.114 277.649C411.12 274.747 407.566 273.623 405.241 272.887C401.853 271.816 401.076 271.57 399.168 267.851Z" fill="#2B2E29"/>
<path fill-rule="evenodd" clip-rule="evenodd" d="M349.329 422C346.992 422 345.552 424.555 346.764 426.555L352.582 436.156C352.763 436.455 353.088 436.638 353.437 436.638H365.617C365.967 436.638 366.291 436.455 366.472 436.156L372.291 426.555C373.502 424.555 372.063 422 369.725 422H349.329ZM353.447 439.382H365.607C365.962 439.382 366.29 439.57 366.47 439.876L373.959 452.647C374.611 453.76 374.48 455.164 373.633 456.136L360.281 471.452C359.882 471.91 359.172 471.91 358.773 471.452L345.422 456.136C344.575 455.164 344.443 453.76 345.095 452.647L352.584 439.876C352.764 439.57 353.092 439.382 353.447 439.382Z" fill="#7AF103"/>
<path d="M791.277 303H784.073C780.943 303 779.379 304.565 779.379 307.694V313.588C779.379 316.717 780.943 318.282 784.073 318.282H791.277C794.406 318.282 795.971 316.717 795.971 313.588V307.694C795.971 304.565 794.406 303 791.277 303Z" fill="#79EF03"/>
<path d="M526.099 326.796L527.299 334.655C529.555 331.962 532.648 329.743 536.577 327.996C540.58 326.25 544.619 325.377 548.694 325.377C561.065 325.377 567.25 334.982 567.25 354.194C567.25 364.527 565.576 371.768 562.229 375.916C558.954 379.991 553.788 382.028 546.729 382.028C539.452 382.028 533.448 380.282 528.718 376.789C529.082 380.5 529.191 384.357 529.046 388.359V401.349H513V326.796H526.099ZM529.046 343.169V367.838C534.722 369.293 538.797 370.021 541.271 370.021C544.837 370.021 547.275 369.002 548.585 366.965C549.967 364.927 550.658 360.67 550.658 354.194C550.658 347.863 550.04 343.606 548.803 341.423C547.566 339.167 545.383 338.039 542.254 338.039C538.688 338.039 534.285 339.749 529.046 343.169Z" fill="#232622"/>
<path d="M582.052 338.803L580.524 327.887C590.203 326.141 599.554 325.268 608.577 325.268C615.854 325.268 621.203 326.759 624.623 329.743C628.043 332.654 629.753 337.748 629.753 345.025V380.609H616.982L615.345 372.423C609.96 378.754 603.338 381.919 595.478 381.919C590.312 381.919 586.091 380.573 582.817 377.88C579.542 375.115 577.905 371.295 577.905 366.419V360.961C577.905 356.668 579.36 353.32 582.271 350.919C585.182 348.518 589.22 347.317 594.387 347.317H613.598V344.916C613.525 342.15 612.871 340.295 611.633 339.349C610.469 338.403 608.177 337.93 604.757 337.93C598.79 337.93 591.221 338.221 582.052 338.803ZM593.841 362.162V364.236C593.841 367.947 595.951 369.803 600.172 369.803C604.538 369.803 609.014 368.056 613.598 364.563V357.032H599.081C595.588 357.104 593.841 358.815 593.841 362.162Z" fill="#232622"/>
<path d="M657.848 326.796L659.048 334.764C666.835 328.433 674.512 325.268 682.08 325.268C686.956 325.268 690.667 326.541 693.214 329.088C695.834 331.635 697.144 335.346 697.144 340.222V380.609H681.098V345.243C681.098 342.842 680.698 341.204 679.897 340.331C679.169 339.385 677.823 338.912 675.858 338.912C672.438 338.912 667.453 340.549 660.904 343.824V380.609H644.749V326.796H657.848Z" fill="#232622"/>
<path d="M763.797 304.201V380.609H751.026L749.716 372.75C744.549 378.863 737.709 381.919 729.195 381.919C722.5 381.919 717.625 379.518 714.568 374.715C711.585 369.839 710.093 362.671 710.093 353.211C710.093 342.878 711.767 335.637 715.114 331.489C718.461 327.342 723.664 325.268 730.723 325.268C737.636 325.268 743.458 326.869 748.188 330.07C747.824 326.068 747.642 322.32 747.642 318.827V304.201H763.797ZM747.642 364.236V339.349C742.767 337.966 738.946 337.275 736.181 337.275C732.542 337.275 730.032 338.293 728.649 340.331C727.339 342.369 726.684 346.626 726.684 353.102C726.684 359.288 727.339 363.435 728.649 365.546C729.959 367.583 732.288 368.602 735.635 368.602C737.891 368.602 739.819 368.311 741.42 367.729C743.021 367.074 745.095 365.91 747.642 364.236Z" fill="#232622"/>
<path d="M795.752 380.609H779.706V326.796H795.752V380.609Z" fill="#232622"/>
<path d="M850.261 325.268L848.623 340.222H844.257C840.691 340.222 835.197 341.459 827.775 343.933V380.609H811.62V326.796H824.173L825.592 334.655C832.941 328.397 840.218 325.268 847.423 325.268H850.261Z" fill="#232622"/>
<path d="M893.701 359.106H874.271C874.781 363.035 875.945 365.691 877.764 367.074C879.656 368.384 882.749 369.039 887.042 369.039C892.791 369.039 899.486 368.639 907.127 367.838L908.655 377.88C903.052 380.573 895.229 381.919 885.187 381.919C875.072 381.919 867.868 379.736 863.574 375.37C859.281 371.004 857.134 363.799 857.134 353.757C857.134 343.205 859.208 335.819 863.356 331.599C867.576 327.378 874.635 325.268 884.532 325.268C893.483 325.268 899.959 326.832 903.961 329.961C907.964 333.018 910.001 337.711 910.074 344.042C910.074 349.063 908.764 352.847 906.145 355.394C903.598 357.869 899.45 359.106 893.701 359.106ZM873.944 349.391H889.225C891.19 349.391 892.5 348.918 893.155 347.972C893.883 347.026 894.247 345.643 894.247 343.824C894.247 341.277 893.592 339.531 892.282 338.585C890.972 337.566 888.571 337.056 885.078 337.056C880.93 337.056 878.092 337.893 876.564 339.567C875.035 341.168 874.162 344.443 873.944 349.391Z" fill="#232622"/>
<path d="M966.788 367.838L968.207 378.317C962.676 380.718 955.727 381.919 947.358 381.919C937.461 381.919 930.476 379.809 926.4 375.588C922.398 371.295 920.397 363.981 920.397 353.648C920.397 343.242 922.434 335.928 926.51 331.708C930.585 327.414 937.607 325.268 947.576 325.268C955.727 325.268 962.349 326.396 967.443 328.651L965.696 338.694C957.837 338.548 952.707 338.475 950.305 338.475C945.357 338.475 941.937 339.531 940.045 341.641C938.226 343.751 937.316 347.754 937.316 353.648C937.316 359.542 938.226 363.545 940.045 365.655C941.937 367.765 945.357 368.82 950.305 368.82C956.636 368.82 962.13 368.493 966.788 367.838Z" fill="#232622"/>
<path d="M1001.15 337.602V363.035C1001.15 365.073 1001.59 366.492 1002.46 367.292C1003.34 368.093 1004.86 368.493 1007.05 368.493H1013.92L1015.67 379.736C1011.52 381.191 1006.47 381.919 1000.5 381.919C995.623 381.919 991.839 380.573 989.147 377.88C986.454 375.115 985.108 371.295 985.108 366.419V337.602H975.611V327.342L985.108 326.796V311.732H1001.15V326.796H1016.11V337.602H1001.15Z" fill="#232622"/>
</svg>
